<?xml version="1.0" encoding="utf-8"?>
<!-- Generator: Adobe Illustrator 19.1.0, SVG Export Plug-In . SVG Version: 6.00 Build 0)  -->
<svg version="1.1" id="Instagram" xmlns="http://www.w3.org/2000/svg" xmlns:xlink="http://www.w3.org/1999/xlink" x="0px" y="0px"
	 viewBox="-39 41 20 20" style="enable-background:new -39 41 20 20;" xml:space="preserve">
<style type="text/css">
	.st0{fill:#C3EAE1;}
</style>
<path class="st0" d="M-22,42h-14c-1.1,0-2,0.9-2,2v14c0,1.1,0.9,2,2,2h14c1.1,0,2-0.9,2-2V44C-20,42.9-20.9,42-22,42z M-29,56.5
	c3.1,0,5.5-2.5,5.5-5.5c0-0.3,0-0.7-0.1-1h1.6v7.2c0,0.4-0.3,0.7-0.7,0.7h-12.6c-0.4,0-0.7-0.3-0.7-0.7V50h1.5
	c-0.1,0.3-0.1,0.6-0.1,1C-34.6,54-32.1,56.5-29,56.5z M-32.5,51c0-1.9,1.6-3.5,3.5-3.5c1.9,0,3.5,1.5,3.5,3.5c0,1.9-1.6,3.5-3.5,3.5
	C-30.9,54.4-32.5,52.9-32.5,51z M-22.7,47h-1.6c-0.4,0-0.7-0.3-0.7-0.7v-1.6c0-0.4,0.3-0.7,0.7-0.7h1.6c0.4,0,0.7,0.3,0.7,0.7v1.6
	C-22,46.7-22.3,47-22.7,47z"/>
</svg>
