<?xml version="1.0" encoding="utf-8"?>
<!-- Generator: Adobe Illustrator 19.1.0, SVG Export Plug-In . SVG Version: 6.00 Build 0)  -->
<svg version="1.1" id="Pinterest" xmlns="http://www.w3.org/2000/svg" xmlns:xlink="http://www.w3.org/1999/xlink" x="0px" y="0px"
	 viewBox="-39 41 20 20" style="enable-background:new -39 41 20 20;" xml:space="preserve">
<style type="text/css">
	.st0{fill:#C3EAE1;}
</style>
<path class="st0" d="M-30.4,54.2c-0.5,2.8-1.2,5.4-3.1,6.8c-0.6-4.2,0.9-7.3,1.5-10.6c-1.1-1.9,0.1-5.8,2.6-4.9
	c3,1.2-2.6,7.2,1.1,7.9c3.9,0.8,5.5-6.8,3.1-9.2c-3.5-3.5-10.1-0.1-9.3,5c0.2,1.2,1.5,1.6,0.5,3.3c-2.2-0.5-2.9-2.3-2.8-4.6
	c0.1-3.8,3.4-6.5,6.8-6.9c4.2-0.5,8.1,1.5,8.7,5.5c0.6,4.5-1.9,9.3-6.4,8.9C-28.9,55.4-29.4,54.8-30.4,54.2z"/>
</svg>
