<?xml version="1.0" encoding="utf-8"?>
<!-- Generator: Adobe Illustrator 19.1.0, SVG Export Plug-In . SVG Version: 6.00 Build 0)  -->
<svg version="1.1" id="Github" xmlns="http://www.w3.org/2000/svg" xmlns:xlink="http://www.w3.org/1999/xlink" x="0px" y="0px"
	 viewBox="-39 41 20 20" style="enable-background:new -39 41 20 20;" xml:space="preserve">
<style type="text/css">
	.st0{fill:#C3EAE1;}
</style>
<path class="st0" d="M-25.8,52.3c-0.7,0-1.3,0.8-1.3,1.8c0,1,0.6,1.8,1.3,1.8s1.3-0.8,1.3-1.8C-24.5,53.1-25.1,52.3-25.8,52.3z
	 M-21.3,47.6c0.1-0.4,0.2-2.4-0.6-4.4c0,0-1.8,0.2-4.6,2.1C-27.1,45.1-28,45-29,45c-1,0-1.9,0.1-2.5,0.2c-2.7-1.9-4.6-2.1-4.6-2.1
	c-0.8,2-0.8,4.1-0.6,4.4c-0.9,1-1.5,2.2-1.5,3.9c0,7.2,6,7.3,7.5,7.3c0.3,0,1,0,1.7,0c0.7,0,1.4,0,1.7,0c1.5,0,7.5-0.1,7.5-7.3
	C-19.8,49.8-20.4,48.6-21.3,47.6z M-29,57.9L-29,57.9c-3.8,0-6.8-0.4-6.8-4.1c0-0.9,0.3-1.7,1-2.4c1.2-1.1,3.3-0.5,5.7-0.5
	c0,0,0,0,0,0c0,0,0,0,0,0c2.4,0,4.4-0.6,5.7,0.5c0.7,0.7,1,1.5,1,2.4C-22.3,57.5-25.2,57.9-29,57.9z M-32.2,52.3
	c-0.7,0-1.3,0.8-1.3,1.8c0,1,0.6,1.8,1.3,1.8c0.7,0,1.3-0.8,1.3-1.8C-30.9,53.1-31.5,52.3-32.2,52.3z"/>
</svg>
