<?xml version="1.0" encoding="utf-8"?>
<!-- Generator: Adobe Illustrator 19.1.0, SVG Export Plug-In . SVG Version: 6.00 Build 0)  -->
<svg version="1.1" id="Twitter" xmlns="http://www.w3.org/2000/svg" xmlns:xlink="http://www.w3.org/1999/xlink" x="0px" y="0px"
	 viewBox="-39 41 20 20" style="enable-background:new -39 41 20 20;" xml:space="preserve">
<style type="text/css">
	.st0{fill:#C3EAE1;}
</style>
<path class="st0" d="M-21.7,47.2c0,0.2,0,0.3,0,0.5c0,5-3.8,10.7-10.7,10.7c-2.1,0-4.1-0.6-5.8-1.7c0.3,0,0.6,0.1,0.9,0.1
	c1.8,0,3.4-0.6,4.7-1.6c-1.7,0-3-1.1-3.5-2.6c0.2,0,0.5,0.1,0.7,0.1c0.3,0,0.7,0,1-0.1c-1.7-0.3-3-1.9-3-3.7c0,0,0,0,0,0
	c0.5,0.3,1.1,0.5,1.7,0.5c-1-0.7-1.7-1.8-1.7-3.1c0-0.7,0.2-1.3,0.5-1.9c1.9,2.3,4.6,3.8,7.8,3.9c-0.1-0.3-0.1-0.6-0.1-0.9
	c0-2.1,1.7-3.8,3.8-3.8c1.1,0,2.1,0.5,2.8,1.2c0.9-0.2,1.7-0.5,2.4-0.9c-0.3,0.9-0.9,1.6-1.7,2.1c0.8-0.1,1.5-0.3,2.2-0.6
	C-20.3,46.1-20.9,46.7-21.7,47.2z"/>
</svg>
