<?xml version="1.0" encoding="utf-8"?>
<!-- Generator: Adobe Illustrator 19.1.0, SVG Export Plug-In . SVG Version: 6.00 Build 0)  -->
<svg version="1.1" id="Layer_1" xmlns="http://www.w3.org/2000/svg" xmlns:xlink="http://www.w3.org/1999/xlink" x="0px" y="0px"
	 viewBox="0 0 100 100" style="enable-background:new 0 0 100 100;" xml:space="preserve">
<style type="text/css">
	.st0{fill:none;stroke:#C3EAE1;stroke-miterlimit:10;}
	.st1{fill:#C3EAE1;}
</style>
<polygon class="st0" points="32.4,32.5 28.7,33.1 27,29.7 29.7,27.1 33,28.8 "/>
<polygon class="st0" points="79.5,43.3 76.8,40.7 78.4,37.3 82.1,37.9 82.8,41.6 "/>
<polygon class="st0" points="29.5,93.3 26.8,90.7 28.4,87.3 32.1,87.9 32.8,91.6 "/>
<rect x="46.5" y="7.5" class="st0" width="6" height="6"/>
<rect x="92.5" y="93.5" class="st0" width="6" height="6"/>
<rect x="16.5" y="67.5" class="st0" width="6" height="6"/>
<rect x="66.5" y="57.5" transform="matrix(-0.7071 0.7071 -0.7071 -0.7071 161.4239 54.136)" class="st0" width="6" height="6"/>
<polygon class="st0" points="36.9,43.5 39.9,37.5 42.9,43.5 "/>
<polygon class="st0" points="82.9,7.5 79.9,13.5 76.9,7.5 "/>
<polygon class="st0" points="9.9,43.7 7.8,37.4 14.2,39.5 "/>
<polygon class="st0" points="61.9,86.4 62.5,93.1 56.8,89.5 "/>
<polygon class="st0" points="82.9,77.5 79.9,83.5 76.9,77.5 "/>
<polygon class="st0" points="52.8,62.2 51.1,63.4 49,63.3 47.5,61.9 47.3,59.8 48.4,58.1 50.4,57.5 52.3,58.3 53.3,60.1 "/>
<polygon class="st0" points="92.8,22.2 91.1,23.4 89,23.3 87.5,21.9 87.3,19.8 88.4,18.1 90.4,17.5 92.3,18.3 93.3,20.1 "/>
<polygon class="st0" points="30.8,13.5 28.7,13.2 27.3,11.7 27.3,9.6 28.5,7.9 30.6,7.5 32.4,8.5 33.2,10.4 32.6,12.4 "/>
<circle class="st0" cx="60" cy="30.5" r="3"/>
<circle class="st0" cx="0" cy="60.5" r="3"/>
<circle class="st0" cx="100" cy="60.5" r="3"/>
<circle class="st1" cx="14.3" cy="15" r="1.5"/>
<circle class="st1" cx="10.3" cy="90" r="1.5"/>
<circle class="st1" cx="34.3" cy="56" r="1.5"/>
<circle class="st1" cx="94.3" cy="35" r="1.5"/>
<circle class="st1" cx="70.3" cy="20" r="1.5"/>
<circle class="st1" cx="75.3" cy="100" r="1.5"/>
<circle class="st1" cx="75.3" cy="0" r="1.5"/>
<circle class="st1" cx="50.3" cy="80" r="1.5"/>
</svg>
