<?xml version="1.0" encoding="utf-8"?>
<!-- Generator: Adobe Illustrator 19.1.0, SVG Export Plug-In . SVG Version: 6.00 Build 0)  -->
<svg version="1.1" id="Layer_1" xmlns="http://www.w3.org/2000/svg" xmlns:xlink="http://www.w3.org/1999/xlink" x="0px" y="0px"
	 viewBox="0 0 100 100" style="enable-background:new 0 0 100 100;" xml:space="preserve">
<style type="text/css">
	.st0{fill:none;stroke:#C3EAE1;stroke-miterlimit:10;}
	.st1{fill:#C3EAE1;}
</style>
<polygon class="st0" points="23.9,50.3 20.8,50.8 19.3,47.9 21.6,45.7 24.4,47.1 "/>
<polygon class="st0" points="51.6,58.4 49.3,56.2 50.7,53.3 53.9,53.8 54.4,56.9 "/>
<polygon class="st0" points="23.1,98.9 22.2,95.9 24.8,94.1 27.3,96.1 26.2,99 "/>
<rect x="38.5" y="20.5" class="st0" width="5" height="5"/>
<rect x="72.5" y="90.5" class="st0" width="5" height="5"/>
<rect x="49.5" y="-2.5" class="st0" width="5" height="5"/>
<rect x="49.5" y="97.5" class="st0" width="5" height="5"/>
<rect x="9.5" y="67.5" class="st0" width="5" height="5"/>
<rect x="34.5" y="90.5" class="st0" width="5" height="5"/>
<rect x="39.7" y="61.4" transform="matrix(-0.7071 0.7071 -0.7071 -0.7071 117.2135 79.2225)" class="st0" width="5.1" height="5.1"/>
<polygon class="st0" points="25.7,64.5 28.2,59.4 30.8,64.5 "/>
<polygon class="st0" points="47.5,37.5 45,42.6 42.5,37.5 "/>
<polygon class="st0" points="6.9,57.7 5.1,52.4 10.5,54.2 "/>
<polygon class="st0" points="49.5,82.5 47,87.6 44.5,82.5 "/>
<polygon class="st0" points="20.5,81.5 18,86.6 15.5,81.5 "/>
<polygon class="st0" points="35.1,76.3 33.7,77.4 31.9,77.3 30.6,76.1 30.4,74.3 31.4,72.8 33.1,72.3 34.7,73 35.5,74.6 "/>
<polygon class="st0" points="5.9,85.5 4.5,86.6 2.7,86.5 1.4,85.3 1.2,83.6 2.1,82.1 3.8,81.6 5.4,82.2 6.2,83.8 "/>
<polygon class="st0" points="16.5,30.2 14.8,30 13.6,28.7 13.5,26.9 14.6,25.5 16.3,25.2 17.9,26 18.6,27.6 18,29.3 "/>
<circle class="st0" cx="35.2" cy="50.6" r="2.5"/>
<circle class="st0" cx="-0.4" cy="66.9" r="2.5"/>
<circle class="st0" cx="99.6" cy="66.9" r="2.5"/>
<circle class="st0" cx="14.6" cy="99.9" r="2.5"/>
<circle class="st0" cx="14.6" cy="-0.1" r="2.5"/>
<circle class="st0" cx="12" cy="39.9" r="2.5"/>
<circle class="st1" cx="5.7" cy="29.3" r="1.3"/>
<circle class="st1" cx="8.3" cy="91.8" r="1.3"/>
<circle class="st1" cx="16.5" cy="60.1" r="1.3"/>
<polygon class="st0" points="96.9,82.3 93.8,82.8 92.3,79.9 94.6,77.7 97.4,79.1 "/>
<polygon class="st0" points="27.6,24.4 25.3,22.2 26.7,19.3 29.9,19.8 30.4,22.9 "/>
<rect x="37.7" y="5.4" transform="matrix(-0.7071 0.7071 -0.7071 -0.7071 74.2013 -14.9613)" class="st0" width="5.1" height="5.1"/>
<rect x="21.7" y="34.4" transform="matrix(-0.7071 0.7071 -0.7071 -0.7071 67.3937 45.8585)" class="st0" width="5.1" height="5.1"/>
<rect x="3.7" y="7.4" transform="matrix(-0.7071 0.7071 -0.7071 -0.7071 17.5739 12.4945)" class="st0" width="5.1" height="5.1"/>
<polygon class="st0" points="11.7,18.5 14.2,13.4 16.8,18.5 "/>
<polygon class="st0" points="54.1,28.3 52.7,29.4 50.9,29.3 49.6,28.1 49.4,26.3 50.4,24.8 52.1,24.3 53.7,25 54.5,26.6 "/>
<circle class="st1" cx="21.5" cy="8.1" r="1.3"/>
<circle class="st1" cx="3.2" cy="4.3" r="1.3"/>
<circle class="st1" cx="31.2" cy="32.3" r="1.3"/>
<circle class="st1" cx="55.9" cy="40.7" r="1.3"/>
<circle class="st1" cx="26.9" cy="83.7" r="1.3"/>
<circle class="st1" cx="54.1" cy="14.8" r="1.3"/>
<polygon class="st0" points="83.9,42.3 80.8,42.8 79.3,39.9 81.6,37.7 84.4,39.1 "/>
<rect x="94.5" y="28.5" class="st0" width="5" height="5"/>
<rect x="67.5" y="69.5" class="st0" width="5" height="5"/>
<rect x="91.7" y="57.4" transform="matrix(-0.7071 0.7071 -0.7071 -0.7071 203.1546 35.6245)" class="st0" width="5.1" height="5.1"/>
<polygon class="st0" points="79.7,55.5 82.2,50.4 84.8,55.5 "/>
<polygon class="st0" points="89.5,2.5 87,7.6 84.5,2.5 "/>
<polygon class="st0" points="64.9,51.7 63.1,46.4 68.5,48.2 "/>
<polygon class="st0" points="97.8,92.7 98.3,98.4 93.5,95.4 "/>
<polygon class="st0" points="85.1,70.3 83.7,71.4 81.9,71.3 80.6,70.1 80.4,68.3 81.4,66.8 83.1,66.3 84.7,67 85.5,68.6 "/>
<polygon class="st0" points="62.9,84.5 61.5,85.6 59.7,85.5 58.4,84.3 58.2,82.6 59.1,81.1 60.8,80.6 62.4,81.2 63.2,82.8 "/>
<polygon class="st0" points="76.5,21.2 74.8,21 73.6,19.7 73.5,17.9 74.6,16.5 76.3,16.2 77.9,17 78.6,18.6 78,20.3 "/>
<circle class="st0" cx="93.2" cy="47.6" r="2.5"/>
<circle class="st0" cx="82.2" cy="81.6" r="2.5"/>
<circle class="st0" cx="57.6" cy="66.9" r="2.5"/>
<circle class="st0" cx="69" cy="38.9" r="2.5"/>
<circle class="st1" cx="62.7" cy="28.3" r="1.3"/>
<circle class="st1" cx="64.3" cy="92.8" r="1.3"/>
<circle class="st1" cx="100.3" cy="39.8" r="1.3"/>
<circle class="st1" cx="0.3" cy="39.8" r="1.3"/>
<circle class="st1" cx="73.5" cy="59.1" r="1.3"/>
<circle class="st1" cx="51.5" cy="76.1" r="1.3"/>
<polygon class="st0" points="81.6,30.4 79.3,28.2 80.7,25.3 83.9,25.8 84.4,28.9 "/>
<rect x="64.7" y="2.4" transform="matrix(-0.7071 0.7071 -0.7071 -0.7071 118.1719 -39.1745)" class="st0" width="5.1" height="5.1"/>
<polygon class="st0" points="61.7,20.5 64.2,15.4 66.8,20.5 "/>
<polygon class="st0" points="95.1,15.3 93.7,16.4 91.9,16.3 90.6,15.1 90.4,13.3 91.4,11.8 93.1,11.3 94.7,12 95.5,13.6 "/>
<circle class="st1" cx="78.5" cy="7.1" r="1.3"/>
<circle class="st1" cx="60.2" cy="3.3" r="1.3"/>
<circle class="st1" cx="91.2" cy="23.3" r="1.3"/>
<circle class="st1" cx="97.9" cy="1.7" r="1.3"/>
<circle class="st1" cx="85" cy="95.3" r="1.3"/>
</svg>
