<?xml version="1.0" encoding="utf-8"?>
<!-- Generator: Adobe Illustrator 19.1.0, SVG Export Plug-In . SVG Version: 6.00 Build 0)  -->
<svg version="1.1" id="Layer_1" xmlns="http://www.w3.org/2000/svg" xmlns:xlink="http://www.w3.org/1999/xlink" x="0px" y="0px"
	 viewBox="0 0 100 100" style="enable-background:new 0 0 100 100;" xml:space="preserve">
<style type="text/css">
	.st0{fill:none;stroke:#C3EAE1;stroke-miterlimit:10;}
	.st1{fill:#C3EAE1;}
</style>
<polygon class="st0" points="26.9,43.3 23.8,43.8 22.3,40.9 24.6,38.7 27.4,40.1 "/>
<polygon class="st0" points="66.6,52.4 64.3,50.2 65.7,47.3 68.9,47.8 69.4,50.9 "/>
<polygon class="st0" points="23.1,93.9 22.2,90.9 24.8,89.1 27.3,91.1 26.2,94 "/>
<rect x="37.5" y="23.5" class="st0" width="5" height="5"/>
<rect x="76.5" y="94.5" class="st0" width="5" height="5"/>
<rect x="12.5" y="73.5" class="st0" width="5" height="5"/>
<rect x="55.7" y="64.4" transform="matrix(-0.7071 0.7071 -0.7071 -0.7071 146.6485 73.0301)" class="st0" width="5.1" height="5.1"/>
<polygon class="st0" points="30.7,53.5 33.2,48.4 35.8,53.5 "/>
<polygon class="st0" points="69.5,22.5 67,27.6 64.5,22.5 "/>
<polygon class="st0" points="7.9,52.7 6.1,47.4 11.5,49.2 "/>
<polygon class="st0" points="34.9,6.7 33.1,1.4 38.5,3.2 "/>
<polygon class="st0" points="51.8,88.7 52.3,94.4 47.5,91.4 "/>
<polygon class="st0" points="72.5,80.5 70,85.6 67.5,80.5 "/>
<polygon class="st0" points="44.1,68.3 42.7,69.4 40.9,69.3 39.6,68.1 39.4,66.3 40.4,64.8 42.1,64.3 43.7,65 44.5,66.6 "/>
<polygon class="st0" points="77.9,34.5 76.5,35.6 74.7,35.5 73.4,34.3 73.2,32.6 74.1,31.1 75.8,30.6 77.4,31.2 78.2,32.8 "/>
<polygon class="st0" points="20.5,27.2 18.8,27 17.6,25.7 17.5,23.9 18.6,22.5 20.3,22.2 21.9,23 22.6,24.6 22,26.3 "/>
<circle class="st0" cx="50.2" cy="41.6" r="2.5"/>
<circle class="st0" cx="-0.4" cy="66.9" r="2.5"/>
<circle class="st0" cx="99.6" cy="66.9" r="2.5"/>
<circle class="st0" cx="84" cy="66.9" r="2.5"/>
<circle class="st1" cx="5.7" cy="29.3" r="1.3"/>
<circle class="st1" cx="8.3" cy="91.8" r="1.3"/>
<circle class="st1" cx="16.5" cy="60.1" r="1.3"/>
<polygon class="st0" points="92.9,83.3 89.8,83.8 88.3,80.9 90.6,78.7 93.4,80.1 "/>
<polygon class="st0" points="85.6,14.4 83.3,12.2 84.7,9.3 87.9,9.8 88.4,12.9 "/>
<rect x="48.7" y="9.4" transform="matrix(-0.7071 0.7071 -0.7071 -0.7071 95.8079 -15.9111)" class="st0" width="5.1" height="5.1"/>
<polygon class="st0" points="90.7,37.5 93.2,32.4 95.8,37.5 "/>
<polygon class="st0" points="71.1,5.3 69.7,6.4 67.9,6.3 66.6,5.1 66.4,3.3 67.4,1.8 69.1,1.3 70.7,2 71.5,3.6 "/>
<circle class="st0" cx="9.2" cy="6.6" r="2.5"/>
<circle class="st1" cx="21.5" cy="8.1" r="1.3"/>
<circle class="st1" cx="79.2" cy="45.3" r="1.3"/>
<circle class="st1" cx="91.2" cy="51.3" r="1.3"/>
<circle class="st1" cx="58.9" cy="32.7" r="1.3"/>
<circle class="st1" cx="89.9" cy="94.7" r="1.3"/>
<circle class="st1" cx="63.1" cy="100.2" r="1.3"/>
<circle class="st1" cx="63.1" cy="15.8" r="1.3"/>
<circle class="st1" cx="42" cy="83.3" r="1.3"/>
</svg>
